<svg version="1.2" xmlns="http://www.w3.org/2000/svg" viewBox="0 0 1000 800" width="1000" height="800">
	<title>quba_logo</title>
	<style>
		.s0 { fill: #000000 } 
		.s1 { fill: #00335d } 
	</style>
	<g id="black">
		<path id="Shape 5" class="s0" d="m341 6c0 0-25.8 35.5 7 58 32.8 22.5 56-8 56-8 0 0-36.9 6.9-47-6-10.1-12.9-16-44-16-44z"/>
		<path id="Shape 6" class="s0" d="m415.6 729.1v-3h546.1v3z"/>
		<path id="Layer" fill-rule="evenodd" class="s0" d="m522.9 364.3c1 2.3 2.7 6 3.6 8.2 3.5 7.9 4.8 15.2 5.2 27.7 0.4 13.3-1 21.3-3.8 21.3-1.1 0-1.5-3.4-1.9-15.5-0.5-14.4-0.8-16-3.5-22-1.6-3.6-4.2-8.5-5.8-11-2.3-3.8-2.7-5.2-2.1-8.5 0.3-2.2 1.1-4.6 1.6-5.2 1.6-2 4.6 0.3 6.7 5zm188.7-6.3c1.8 0 5.4 8 5.4 12 0 4.4 0.9 5.8 5.2 8.2 4.8 2.7 8.2 7.9 7.2 11-1.5 5-2.4 5.1-7.5 0.3-2.6-2.5-5.5-4.5-6.3-4.5-0.9 0-2.2 1.6-3.1 3.6-4.9 11.7-31.9 46.4-36.2 46.4-2.4 0-1.4-3.9 2-7.7 8.2-9.3 30.7-41 30.7-43.2 0-0.9-1.7-2.5-3.8-3.6-3.3-1.8-3.7-2.5-4-6.4-0.4-5.6 1.2-9.3 5.5-13.1 1.8-1.7 4-3 4.9-3zm-3.9 11.7c-0.8 0.7 1.1 3.3 2.4 3.3 0.5 0 0.9-0.9 0.9-2 0-1.9-2-2.7-3.3-1.3zm-114.8-6.2c3.7 4.2 4.7 7.8 3.2 11.1-1.4 3.2-2.5 3-5.7-1.1-2.7-3.6-5.6-4.5-7.1-2.3-1.6 2.6-3.3 10.6-3.9 18.8-0.4 4.7-1.1 9.1-1.7 9.7-1.9 2.5-4.5 1.4-5.8-2.5-1.9-5.8-6.8-15.2-8-15.2-0.6 0-2.4-0.9-4-2.1-2.7-1.9-2.9-2.5-2.9-9 0-7.1 0.5-7.8 4-5.9 2.6 1.4 9.7 11.9 11.3 16.6 1.9 6 3.3 5.2 4-2.2 0.7-6.9 3.2-13.4 6.7-17.2 3-3.2 6.3-2.8 9.9 1.3zm61.3-1.8c1.4 1.3 1.8 3.1 1.8 8.5 0 6.5 0.2 7 3.5 10.4 3 3 3.5 4.1 3.5 8.3 0 6.4-2 7.3-5.7 2.6-1.6-1.9-3.1-3.5-3.5-3.5-0.4 0-2.3 2.4-4.2 5.2-8.2 12.2-50.5 55.8-54 55.8-4.2 0-1.9-3.1 16.9-23 18.9-20.1 35.5-39.2 35.5-40.9 0-0.6-1.3-1.7-2.9-2.5-3.3-1.7-4.1-3.4-4.1-8.1 0-4.6 1.2-7.4 4.9-11.3 3.5-3.6 5.6-4 8.3-1.5zm-7.2 9.2c0 1.2 2.6 3.2 3.3 2.5 0.3-0.3 0.3-1.2 0-2-0.6-1.5-3.3-2-3.3-0.5zm-198.6-4.8c2.2 2.5 2.6 4 2.4 7.3-0.4 5.1-2.6 5.8-6.9 2.2-1.7-1.4-3.6-2.6-4.3-2.6-2.8 0-3.9 5.1-6.3 28.7-0.5 5.8-3.3 9.4-5.6 7.5-0.7-0.6-2.6-4.9-4.2-9.4-3.4-9.8-5.1-12.8-7.4-12.8-2.3 0-5.8-3.8-7.1-7.7-1.2-3.4 0.1-10.6 2.2-11.9 2.4-1.5 10.6 11 15.7 24 1.9 4.7 3.5 1.5 3.9-7.7 0.2-4.5 0.8-8.6 1.3-9.2 0.5-0.5 0.9-2.1 0.9-3.5 0-2.6 4.9-8.2 8-9.2 2.1-0.7 4.3 0.6 7.4 4.3zm493.5-3.2c1.2 0.8 1.2 1.4 0.2 3.9-1.5 3.6-0.4 3.1-45.6 17.8-16.5 5.3-35.6 12.1-42.5 15-6.9 3-13.2 5.4-14 5.4-0.9 0-2 0.4-2.5 0.9-0.6 0.5-9.8 5-20.5 9.9-25.6 11.8-52 24.6-64.9 31.6-6.5 3.5-10.8 5.3-11.4 4.7-1.2-1.2 0-7.6 1.6-8.9 2.4-1.9 47.4-25.1 52.7-27.2 3-1.2 13.2-5.9 22.7-10.5 9.4-4.7 18.4-8.7 20-9.1 1.5-0.4 3.3-1 3.8-1.4 0.6-0.4 4.2-1.9 8-3.3 3.9-1.4 12-4.4 18-6.7 6.1-2.3 17.3-6.2 25-8.6 7.7-2.5 17.6-5.7 22-7.1 4.4-1.4 11.8-3.6 16.5-4.9 10.1-2.7 9.2-2.6 10.9-1.5zm-159.5 0.1c4.6 0 10.4 8.5 9.2 13.5-0.8 3.3-2.2 3.2-5.3-0.5-2.6-3.2-7.5-4.1-8.9-1.8-0.4 0.7-1.3 8.1-1.9 16.6-1.1 14.9-1.7 17.1-4.8 17.2-0.4 0-1.9-2.6-3.3-5.8-5.4-12.3-7.7-15.9-12.2-18.7-5.7-3.6-6.9-6.2-5.3-11.5 1.2-4.1 2.5-4.8 5.1-2.7 3 2.4 8 9.5 10 14.3 4.1 9.7 4.5 10.4 5.5 10.4 0.6 0 1.1-3.3 1.2-8.1 0.2-11.3 1.8-17.3 5.5-20.4 1.6-1.4 4-2.5 5.2-2.5zm47.6 1c2.1 0 2.2 3.2 0.4 8.6-1.3 4-1.6 5.9-0.8 7.1 1.8 2.8 2.9 2.5 4.7-1.3 2.2-4.5 4.3-4 4 1-0.4 5.4-3.1 10.5-6.1 11.3-2 0.5-3.1 0-5.4-2.6-3.4-3.8-3.5-5.9-0.7-14.8 1.2-3.8 2.3-7.4 2.5-8.1 0.2-0.6 0.8-1.2 1.4-1.2zm-207.2 31.9c-2.5 3.6-9.3 7.6-35.3 20.8-8.2 4.1-19 9.9-24 12.8-9.1 5.3-31.9 18.1-41 23-8 4.3-8.9 4.9-12.2 7.2-3.6 2.6-4.6 2.8-6.1 1-1.8-2.2 0.4-8.1 3.6-9.7 1.5-0.8 5.8-3.4 9.5-5.7 3.7-2.4 6.9-4.3 7.1-4.3 0.2 0 3.3-1.6 6.8-3.6 3.4-2 14.6-7.9 24.8-13.1 10.2-5.3 19-10 19.7-10.5 0.6-0.5 5.3-3 10.5-5.7 14-7.2 27.9-14.6 31.8-17 6.2-3.8 8.9-1.1 4.8 4.8zm313.8 3.5c3.5 3.5 4.4 7.5 2.4 10.6-0.8 1.2-1.5 0.9-4.4-1.9-2.3-2.2-4-3.1-5.3-2.7-3.6 1.2-4.7 4.6-5.3 18.1-0.6 12.9-1.9 17.9-4.3 16.9-0.6-0.3-3.4-5-6.2-10.5-4-8.1-5.3-9.9-7.2-9.9-2.8 0-7.3-5.7-7.3-9.4 0-3.5 1.7-6.6 3.5-6.6 2.3 0 11.8 12.2 14 17.9 1.1 2.8 2.3 5.1 2.7 5.1 0.4 0 0.8-3.7 0.8-8.1 0-10.2 2.9-19.3 6.9-21.4 4-2.2 6-1.8 9.7 1.9zm-70.5 15.7c0.5 0.8 0.7 2.6 0.4 4-0.5 2.2 0 2.9 4.4 5.3 6.1 3.2 8.1 5.9 8.1 10.4 0 4.8-3.9 12.7-7.1 14.6-1.5 0.9-4.7 1.6-7.2 1.6-3.8 0-4.9-0.5-7.1-3.1-1.4-1.7-2.6-4.3-2.6-5.7 0-3.7 2.5-12.9 4.3-15.5 0.7-1.2 1.7-3.6 2.1-5.2 0.4-1.7 1.4-4.1 2.3-5.4 1.2-1.9 1.7-2.1 2.4-1zm-6.1 18c-2.4 4.3 1.1 9.9 6 9.9 3.3 0 8.4-3.9 7.2-5.6-0.4-0.6-2.5-2.3-4.7-3.7-4.8-3.2-7.1-3.4-8.5-0.6zm-392.4-8.1c1.8 0 2.6 3.1 1.2 4.9-3 3.8-5.7 5.6-26.8 18.4-25.4 15.4-24.3 14.9-25.4 12.2-1.7-4.6 3.5-8.7 27.4-21.7 1.9-1.1 7.8-4.6 13-7.8 5.2-3.3 10-6 10.6-6zm362.3 18.9c-2.1 6.7-1.9 11 0.8 13.6 1.4 1.4 1.7 1.4 2.9-0.2 0.7-1 1.4-2.6 1.4-3.6 0-0.9 0.7-1.7 1.6-1.7 1.5 0 1.6 0.9 1 6.2-0.9 9.3-4.5 12.2-9 7.3-3.4-3.7-4.6-9.5-3.5-16.9 1.2-8.3 3-15 4.3-15.8 3.1-2.1 3.4 2.5 0.5 11.1zm-264.3 11.3c3.9 2.7 5.4 5.6 5.4 10.3 0 5-1.5 5.1-6 0.4-3.8-4.1-4.1-4.2-5.8-2.6-1.3 1.4-2 5.4-3.2 17.5-1.4 14.9-1.6 15.7-3.7 16-2.4 0.4-4.4-2.9-7.9-12.7-1.4-4.1-2.8-5.9-5.6-7.7-4.4-2.8-5.8-5.1-5.8-9.6 0.1-11.3 8.8-4.4 15.1 11.9l2.4 6.2 1.2-5.7c0.6-3.1 1.2-7.4 1.2-9.5 0.1-5.5 3-13.5 5.4-15.2 2.8-2 3.5-1.9 7.3 0.7zm37.6 1.1c0.5 1.1 0.7 3.3 0.3 5-1.5 7.3-1.7 11.8-0.5 13.2 2 2.4 3.8 1.7 5-2 1.5-4.5 3-3.6 3 1.8 0 5-2.8 11.1-5.3 11.5-0.9 0.2-3.1-1-4.8-2.7-3.1-3.1-3.1-3.2-2.7-11.9 0.2-5.3 1.1-10.2 2.2-12.7 1.5-3.5 1.8-3.8 2.8-2.2zm341.9 69.7c2.4 0 3.2 0.7 5.4 5.1l2.6 5-1.8 5.2c-1.6 4.3-2.3 5.3-4.5 5.5-1.5 0.2-4-0.4-5.7-1.2-4.4-2.3-5.4-2-8.3 2.9-3 4.9-6.4 7.3-22.3 15.6-12 6.2-22.1 9.7-23.7 8.1-1.6-1.6 0-3.2 7.1-6.5 8.3-4 29.4-16.3 34.2-19.9 1.9-1.5 4.5-4.9 5.7-7.5 1.2-2.7 3.5-6.5 5.2-8.6 2.3-2.7 3.9-3.7 6.1-3.7zm-2.7 8c-0.9 0-1.4 0.5-1.2 1.2 0.6 1.8 2.8 2.1 2.8 0.4 0-0.9-0.7-1.6-1.6-1.6zm-54.6 4.2c-0.6 8.4-4.5 16.3-11.8 23.8-5.4 5.6-10 7.8-10 4.7 0-0.6 3.6-5.3 8-10.2 10.1-11.4 11.1-13.2 8.5-15.1-1.6-1.2-2.1-1.2-3.7 0.3-1.3 1.2-2.2 1.3-2.9 0.6-1.5-1.5 1.7-9.9 4.5-11.9 5.3-3.7 8-0.8 7.4 7.8zm-329 5c2.8 2.8-0.2 14.3-5.1 19.7-5.8 6.3-14.7 10.4-14.7 6.8 0-0.7 2.3-3.3 5.2-5.7 10.3-8.9 12.4-11.9 9.7-13.6-0.6-0.3-1.6-0.1-2.2 0.5-0.6 0.6-1.7 1.1-2.5 1.1-1.7 0-0.9-4.2 1.4-7.8 1.6-2.4 6.2-3 8.2-1zm276 9.2c6.6 4.9 8.2 6.4 8.2 7.9 0 1.7-5.9 10.7-7 10.7-1.1 0-12-7.4-14.7-9.9l-2.3-2.1 3.1-5c3.8-6.1 6.1-6.4 12.7-1.6zm-30-2.3c2-0.1 2.6 2.8 1.2 5.5-1.4 2.6-26.3 17.4-29.4 17.4-1.5 0-1.6-0.5-1.1-3.3 0.8-3.9 1.2-4.2 16-12.7 6.6-3.8 12.6-6.9 13.3-6.9z"/>
	</g>
	<g id="blue">
		<path id="MASJID QUBĀ" class="s1" aria-label="MASJID QUBĀ"  d="m442.1 600.8h-22.4v95.2h14v-67.3l12 67.3h15.2l11.1-68.3v68.3h15.2v-95.2h-22.3l-11 67.6zm90 0h-23.5l-16.4 95.2h14.8l2.8-17.3h19.7l2.8 17.3h16.2zm-12.6 16.9l7.8 48.1h-15.5zm31.9 6c0 27.2 31.4 30.9 31.4 50.5 0 6.8-3.2 9.2-8.3 9.2-5.2 0-8.4-2.4-8.4-9.2v-6.8h-15.2v5.8c0 15.2 8.2 23.9 24 23.9 15.8 0 24-8.7 24-23.9 0-27.2-31.5-30.9-31.5-50.5 0-6.8 3-9.3 8.1-9.3 5.1 0 8 2.5 8 9.3v4h15.2v-3c0-15.2-8-23.9-23.7-23.9-15.6 0-23.6 8.7-23.6 23.9zm49.8 72.4c2.6 0.2 4.8 0.2 7.7 0.2 12.2 0 23.1-4.9 23.1-23.9v-71.6h-16v72.7c0 7.3-4.1 9.1-9.2 9.1-1.8 0-3.8 0-5.6-0.1zm39.3 0h16.1v-95.3h-16.1zm25.3 0h25.4c16.1 0 24-8.2 24-23.5v-48.1c0-15.3-7.9-23.6-24-23.6h-25.4zm25.1-81.6c5.2 0 8.2 2.5 8.2 9.3v49.5c0 6.8-3 9.2-8.2 9.2h-9v-68zm50.9 58.8c0 15.2 8.6 23.9 24.4 23.9 4.2 0 8-0.7 11.2-1.7 2.2 4 6.7 6.5 13.9 6.5h2.2v-13.3h-1.5c-2.6 0-3.8-0.3-4.5-2.1 2-3.5 3.1-8 3.1-13.3v-49.5c0-15.3-8.7-24-24.4-24-15.8 0-24.4 8.7-24.4 24zm16-50.5c0-6.8 3.2-9.4 8.4-9.4 5.1 0 8.3 2.6 8.3 9.4v51.4c0 6.8-3.2 9.4-8.3 9.4-5.2 0-8.4-2.6-8.4-9.4zm39.9-21.9v72.5c0 15.3 8.2 24 24 24 15.8 0 24-8.7 24-24v-72.5h-15.2v73.5c0 6.8-3.2 9.2-8.4 9.2-5.1 0-8.3-2.4-8.3-9.2v-73.5zm80.7 0h-24.3v95.2h25.3c16.1 0 24.4-7.8 24.4-22.5v-7.8c0-10.1-3.3-17.3-12-20.4 7.2-3.1 10.4-9.4 10.4-19.2v-3.4c0-14.7-7.1-21.9-23.8-21.9zm-1 52.4c7.3 0 10.4 2.7 10.4 11.6v8.3c0 7-3 9.3-8.4 9.3h-9.2v-29.2zm0.6-38.8c5.7 0 8.2 3 8.2 9.8v5.3c0 7.6-3.7 10.1-9.7 10.1h-6.3v-25.2zm68.7-13.6h-23.5l-16.4 95.2h14.8l2.8-17.2h19.7l2.8 17.2h16.2zm-12.6 16.9l7.8 48.2h-15.5zm-16.1-33.1v10.6h33.6v-10.6z"/>
		<path id="QUBĀ ISLAMIC CENTRE - LEICESTER" class="s1" aria-label="QUBĀ ISLAMIC CENTRE - LEICESTER"  d="m424.9 753.5c-4.9 0-7.3 3.2-7.3 8.1v16.6c0 4.9 2.4 8.1 7.3 8.1 1.6 0 2.9-0.3 3.9-0.9 0.8 1.3 2.1 2 4.1 2h0.6v-3.1h-0.4c-1 0-1.6-0.3-2-1.1 0.8-1.2 1.2-3 1.2-5v-16.6c0-4.9-2.4-8.1-7.4-8.1zm0 3.2c2.6 0 3.8 1.8 3.8 4.7v17c0 3-1.2 4.7-3.8 4.7-2.6 0-3.8-1.7-3.8-4.7v-17c0-2.9 1.2-4.7 3.8-4.7zm17.3-2.9h-3.6v24.4c0 4.9 2.3 8.2 7.2 8.2 5 0 7.2-3.3 7.2-8.2v-24.4h-3.3v24.6c0 2.9-1.2 4.7-3.8 4.7-2.6 0-3.7-1.8-3.7-4.7zm16.8 0v32.2h7.4c5 0 7.4-2.7 7.4-7.5v-2.7c0-3.6-1.2-6.1-4.3-6.9 2.8-0.9 3.7-3 3.7-6.4v-1.6c0-4.7-2-7.1-7-7.1zm3.6 13.7v-10.4h3.6c2.5 0 3.5 1.4 3.5 4.2v1.9c0 3.4-1.5 4.3-4.3 4.3zm0 15.2v-12h3.1c3.1 0 4.5 1.2 4.5 4.8v2.9c0 3-1.2 4.3-3.8 4.3zm19.8-33.8v2.6h9.8v-2.6zm8.8 30.6l1.2 6.5h3.6l-6.1-32.2h-5.2l-6.2 32.2h3.3l1.3-6.5zm-4.2-21.6l3.7 18.5h-7.2zm23.8-4v32.2h3.6v-32.2zm16.4-0.3c-4.8 0-7.1 3.1-7.1 8 0 9.1 10.8 9.8 10.8 17 0 2.8-1.2 4.6-3.8 4.6-2.6 0-3.8-1.8-3.8-4.6v-2.1h-3.3v1.9c0 4.8 2.3 8 7.2 8 4.9 0 7.2-3.2 7.2-8 0-9.1-10.8-9.8-10.8-17 0-2.9 1.1-4.6 3.7-4.6 2.6 0 3.7 1.7 3.7 4.6v1.1h3.4v-0.9c0-4.9-2.3-8-7.2-8zm25.6 32.5v-3.3h-9.2v-28.9h-3.6v32.2zm16.9-6.5l1.3 6.5h3.6l-6.2-32.2h-5.2l-6.2 32.2h3.4l1.2-6.5zm-4.1-21.7l3.6 18.6h-7.2zm31.2 2.3v25.9h3.4v-32.2h-5l-5.1 25.7-5.3-25.7h-5v32.2h3.1v-25.7l5.3 25.6h3.5zm9.5-6.3v32.2h3.6v-32.2zm16.7-0.3c-5 0-7.3 3.2-7.3 8.1v16.7c0 4.8 2.3 8.1 7.3 8.1 4.9 0 7.2-3.3 7.2-8.1v-4h-3.4v4.1c0 2.9-1.1 4.7-3.8 4.7-2.5 0-3.7-1.8-3.7-4.7v-17c0-2.9 1.2-4.6 3.7-4.6 2.7 0 3.8 1.7 3.8 4.6v3.1h3.4v-2.9c0-4.9-2.3-8.1-7.2-8.1zm29.4 0c-4.9 0-7.2 3.2-7.2 8.1v16.7c0 4.8 2.3 8.1 7.2 8.1 5 0 7.3-3.3 7.3-8.1v-4h-3.4v4.1c0 2.9-1.1 4.7-3.8 4.7-2.5 0-3.7-1.8-3.7-4.7v-17c0-2.9 1.2-4.6 3.7-4.6 2.7 0 3.8 1.7 3.8 4.6v3.1h3.4v-2.9c0-4.9-2.3-8.1-7.3-8.1zm16.6 14.6v-11h9.7v-3.3h-13.3v32.2h13.3v-3.2h-9.7v-11.5h7.9v-3.2zm18.6-8.1l8.2 26h3.7v-32.2h-3.2v23.3l-7.4-23.3h-4.6v32.2h3.3zm26.3 26.1v-29h5.9v-3.2h-15.4v3.2h5.9v29zm10.9-32.2v32.2h3.6v-13.8h2.5c3 0 4.7 1.2 4.7 4.8v5.1c0 2.1 0.2 2.9 0.6 3.9h3.6c-0.6-1.1-0.6-2.5-0.6-3.9v-5c0-3.5-1.1-5.9-4.1-6.7 2.8-0.9 4-3.1 4-6.7v-2.6c0-4.8-2.1-7.3-7.1-7.3zm3.5 15.1v-11.9h3.5c2.7 0 3.8 1.5 3.8 4.4v3.1c0 3.5-1.7 4.4-4.6 4.4zm20.6-0.9v-11h9.6v-3.2h-13.2v32.2h13.2v-3.3h-9.6v-11.5h7.8v-3.2zm24.9 3.5h8.8v-3.2h-8.8zm37.1 14.4v-3.2h-9.2v-29h-3.6v32.2zm8.8-17.9v-11h9.6v-3.3h-13.2v32.2h13.2v-3.2h-9.6v-11.5h7.8v-3.2zm15.4-14.3v32.2h3.6v-32.2zm16.7-0.3c-5 0-7.3 3.2-7.3 8.1v16.7c0 4.8 2.3 8.1 7.3 8.1 4.9 0 7.2-3.3 7.2-8.1v-4h-3.4v4.2c0 2.9-1.1 4.6-3.7 4.6-2.6 0-3.8-1.7-3.8-4.6v-17.1c0-2.9 1.2-4.6 3.8-4.6 2.6 0 3.7 1.7 3.7 4.6v3.1h3.4v-2.9c0-4.9-2.3-8.1-7.2-8.1zm16.5 14.6v-11h9.7v-3.3h-13.3v32.2h13.3v-3.2h-9.7v-11.5h7.9v-3.2zm22.2-14.6c-4.9 0-7.2 3.1-7.2 8.1 0 9 10.8 9.7 10.8 16.9 0 2.9-1.2 4.6-3.8 4.6-2.5 0-3.7-1.7-3.7-4.6v-2h-3.4v1.8c0 4.9 2.3 8.1 7.2 8.1 4.9 0 7.3-3.2 7.3-8.1 0-9-10.8-9.7-10.8-17 0-2.8 1.1-4.5 3.7-4.5 2.5 0 3.6 1.7 3.6 4.6v1h3.4v-0.8c0-4.9-2.3-8.1-7.1-8.1zm21 32.5v-28.9h6v-3.3h-15.5v3.3h5.9v28.9zm14.5-17.9v-11h9.7v-3.3h-13.3v32.2h13.3v-3.2h-9.7v-11.5h7.9v-3.2zm15.4-14.3v32.2h3.6v-13.7h2.5c3 0 4.7 1.1 4.7 4.8v5c0 2.2 0.2 3 0.6 3.9h3.6c-0.6-1.1-0.6-2.4-0.6-3.8v-5c0-3.5-1.1-5.9-4.1-6.7 2.8-0.9 4-3.1 4-6.7v-2.6c0-4.8-2.1-7.4-7.2-7.4zm3.6 15.2v-11.9h3.5c2.7 0 3.8 1.5 3.8 4.4v3.1c0 3.5-1.7 4.4-4.6 4.4z"/>
		<path id="Shape 3" class="s1" d="m236 689c0 0-39.1-146.4-216.2-215.6l194.2-87.4c0 0 20.5-10.7 17 14 0 0 1.8 43 7.2 67.1 0 0 3.5-67.1 1.8-78.1l-3-141c0 0-10.8-83.9 82.5-125.5 0 0 17.9-9.6 47.5-40.5 0 0 23.8 22 47 40 0 0 45 25.8 59.6 46.7 0 0 18.3 17.2 21.4 59.3l-1 97-9 20-11-20v-99c0 0-4.7-46.5-43-68-25.1-14.1-52.3-40-61.5-41.2-9.2-1.3-25.9 15.2-36.4 22.2 0 0-72.7 27.9-70.1 96 2.6 68.1 0 445 0 445z"/>
		<path id="Shape 2" class="s1" d="m223 692c0 0-78.1-119-207.2-157.1l19.2-14.9c0 0 19.7-13.8 38-4 0 0 103 42 150 176z"/>
		<path id="Shape 1" class="s1" d="m203 686c0 0-49.5-58.3-186-102l16-15c0 0 17-8.6 31-2 0 0 81 24.7 139 119z"/>
		<path id="Layer" fill-rule="evenodd" class="s1" d="m482.5 356c3 0 5 16.9 6.7 57.5 3.2 76.4 3.2 76.4 11 88 6 9 15.4 13.8 32.6 16.6 13.2 2.2 46.1-2 61.4-7.7 2.4-0.9 6.8-2.5 9.8-3.7 8.7-3.2 14.2-5.8 18-8.3 5.3-3.6 6-3.2 6 3.2 0 5 0.4 6 3.3 8.9 6.2 6.2 19.5 5.4 33.7-2.1 7.4-3.9 8.4-5.1 7-8.8-1.5-4.1-4.4-4.9-14.9-4.2-6.2 0.4-10.8 0.3-12.8-0.5-9.8-3.3-9.9-20.2-0.3-30.1 3.9-4 5.2-4.8 8.3-4.8 5.5 0 9.7 2.1 14.4 7.3 11.1 12.1 15.3 32.9 9.4 46.2-2.3 5-4.4 6.9-12.2 10.9-6.2 3.1-6.2 3.2-7.6 9.1-0.8 3.3-1.9 7.7-2.5 9.8-2.2 7.4 3.4 18.7 10.1 20.2 4.1 0.9 9.6-1.4 18.9-7.9 13.4-9.4 32.6-30.1 38-40.9 2.9-5.7 2.8-9.7-0.4-18.2-1.4-3.9-3.5-10-4.5-13.6-1.1-3.7-4.5-12.2-7.5-19-5.4-11.8-5.6-12.8-5.8-21.1-0.1-10.2 1.2-13 4.4-8.8 2.5 3.2 9.3 17.4 11 22.5 0.7 2.2 1.6 4.4 2.1 5 0.5 0.5 0.9 1.9 0.9 3.1 0 1.3 0.4 2.5 0.9 2.8 1 0.7 4.7 11.6 6.1 18.1 0.6 2.8 1.5 6.8 2.1 9 1.5 6.2 2.9 14.3 3.8 22.5 1.3 10.7 2.1 14 4.6 18 4.3 6.7 5.8 7.5 14.9 7.5 7-0.1 9.4-0.6 17.6-3.8 11.9-4.7 25.5-12.1 25.5-13.9 0-0.7-1.1-1.4-2.5-1.6-5.6-0.6-48.2-7-51.6-7.7-3.3-0.7-3.6-3-0.9-8.2 2.3-4.8 6.5-8.5 17.2-15.5 14.4-9.4 23.1-18 31.2-30.5 11.1-17.2 16.6-17.7 19.2-1.8 0.6 3.9 1.4 9.2 1.9 12 1.7 10.6 7.1 18.6 14 20.5 11.1 3.1 20-0.9 28.1-12.7 1.6-2.4 3.4-4.3 3.9-4.3 0.6 0 1 2.2 1 5 0 6.6 1.5 9.4 5.7 10.9 2.8 1 4.4 1.1 7.7 0.1 5.4-1.5 8.5-4.1 12.5-10.8 1.8-2.8 3.8-5.2 4.5-5.2 0.9 0 1.5 2 1.9 5.6 0.7 6.6 1.5 7.8 7.6 10.5 3.3 1.5 5.6 1.8 8.6 1.4 7.9-1.3 16.8-8.4 19.9-15.9 0.8-1.8 3.8-5.9 6.7-9 4.8-5 5.8-5.6 9.4-5.6 2.2 0 4.7 0.6 5.6 1.3 4.3 3.3 8.9 15.8 8.9 24.1-0.1 7-4.3 15-8.3 15.4-3 0.4-12.3-3.5-17.2-7.2-5.6-4.2-6.2-4.1-12.5 2.3-4.2 4.3-7.1 6.3-11 7.6-10.2 3.4-19.1 0.4-22.6-7.5-1-2.2-2.3-4-2.8-4-0.6 0-2.2 1.8-3.5 3.9-6.5 10.6-21.9 10.8-27 0.4-0.9-1.8-2-3.3-2.4-3.3-0.5 0-2 1.4-3.5 3.1-1.4 1.8-4.4 4.5-6.6 6-3.4 2.5-4.8 2.9-10.8 2.9-15.1 0-19.7-6.2-23.8-32.8-1.4-8.3-3.8-12.3-6.7-10.6-1 0.6-5.2 6.1-9.3 12.2-7.5 11.1-14.4 19.1-20.7 23.9-3.3 2.5-4.4 5.3-2 5.3 1.1 0 10.2 1.7 22.7 4.1 10.2 2 40.1 5.4 57.3 6.6 10 0.6 10.1 0.8 5.8 8.8l-2.7 5-13.4 0.7c-7.6 0.3-15.9 1.3-19 2.3-3 0.8-6.9 2-8.6 2.4-1.7 0.5-10 4.3-18.3 8.5-18.2 9.1-30.1 14.1-35.8 15-5.4 0.8-12.8-1.6-16.9-5.6-3.8-3.5-6.9-12.4-7.9-21.8-0.5-5.9-1.9-10.2-2.7-9-0.2 0.3-1.4 2.7-2.7 5.5-4.9 10.5-20.6 28.6-34.3 39.7-11.6 9.3-14.8 10.8-23.2 10.8-5.9 0-6.9-0.3-10-3.1-2.2-1.8-4.3-5.2-5.6-8.7-1.9-5-2.1-7.1-1.7-17.7 0.3-6.6 0.8-13.6 1.2-15.6l0.7-3.6-8.4 0.5c-6.4 0.3-9.2 0.1-11.5-1.2-3.3-1.7-6.7-6.4-7.8-10.8-1.3-5-2.4-5-13.5 0.1-17.7 8.2-34.6 13-53 15.3-15.8 1.9-25.9 1.2-40-2.9-10.5-3.1-15.4-5.8-20.8-11.7-10-10.8-11.9-22-14.1-83.6-1.1-30.1-2.8-55.4-4.2-59.4-1.7-5.5-1.2-9.7 2.4-17.4 0.6-1.2 1.5-2.2 2.2-2.2zm164.1 121.5c-0.7 2 2.4 3.5 7.1 3.5 4.8 0 7-1.2 5.1-2.7-3.9-3.1-11.1-3.5-12.2-0.8zm291.2-1.5c-2.8 0-5.8 2.8-5.1 4.7 0.3 0.7 1 1.3 1.7 1.3 0.7 0 3.4 1.1 6 2.5 3.9 2.1 4.8 2.2 5.2 1 0.6-1.4-0.4-3.3-3.9-7.8-0.8-0.9-2.5-1.7-3.9-1.7zm-282.6-44.6c0.8 0.7 2.3 1.6 3.3 2 3.1 1 7.5 5.3 7.5 7.3-0.1 2.6-4.4 9.8-6.1 10.1-0.9 0.1-3.6-1.3-6.1-3.3-2.6-1.9-5.3-3.5-6.1-3.5-0.9 0-2.7 2-4.1 4.5-3 5-5.3 5.7-9.7 2.7-3.6-2.4-7.9-7.2-7.9-8.9 0-2.6 4-9.3 5.7-9.3 0.8 0 3.8 1.6 6.4 3.5 2.7 1.9 5.5 3.5 6.2 3.5 1.2 0 4.3-4.4 5.9-8.2 0.9-2.1 3.1-2.3 5-0.4zm-206.1 51.7c0.4-0.1 1.8 1.1 3.3 2.5 2.1 2.2 2.6 3.6 2.6 7.5 0 5.4-1.7 9.9-3.6 9.9-0.8 0-2.1-1.1-3-2.5-2.7-4.1-10-2.9-14.9 2.5-2.6 2.9-1.3 4.7 5.5 7.1 7.2 2.5 13 2.4 21.5-0.6 6.1-2.1 7.1-2.3 8.4-1 1.3 1.2 1.2 2-0.4 5.7-2.7 6.2-2.9 6.4-10.8 9.4-10.6 4-21.7 9.8-29.2 15.4-7.3 5.5-8.4 5.2-6.5-2.1 1.1-4 4.5-8.2 8.5-10.5 2.1-1.2 1.4-2.1-4.3-5.5-1.8-1-3.6-2.9-4.1-4.2-1.2-3 1-12.4 3.8-17 3.6-5.9 14.3-14.5 19.4-15.7 1.7-0.4 3.5-0.8 3.8-0.9zm381.3 66.8c0.3 0.5 3.1 2.5 6.1 4.6 3.2 2.1 5.5 4.3 5.5 5.4 0 1.7-5.5 11.1-6.5 11.1-2.1 0-14.5-8.5-16.6-11.4-0.7-0.9 0.3-3.2 3.5-7.9 1.8-2.7 6.8-3.8 8-1.8zm-224.9 1.7c3.3 0.7 13.5 8.8 13.5 10.7-0.1 1.6-4.6 6.7-6 6.7-0.5 0-1 0.4-1 1 0 1.8-3.3 1-6.9-1.7-5.4-4.1-9.5-8.3-8.2-8.3 0.6 0 1.1-0.4 1.1-0.9 0-0.5 1-2.6 2.3-4.5 1.9-3.1 2.6-3.5 5.2-3z"/>
	</g>
</svg>